<svg xmlns="http://www.w3.org/2000/svg" width="46" height="51" viewBox="0 0 46 51" version="1.1"><path d="M 23.079 17.750 C 23.036 18.438, 22.100 19, 21 19 C 19.889 19, 19 19.667, 19 20.500 C 19 21.325, 18.438 22, 17.750 22 C 17.028 22, 16.500 23.267, 16.500 25 C 16.500 26.733, 17.028 28, 17.750 28 C 18.438 28, 19 28.675, 19 29.500 C 19 30.325, 19.863 31, 20.917 31 C 21.971 31, 23.060 31.563, 23.338 32.250 C 23.741 33.250, 23.858 33.250, 23.921 32.250 C 23.964 31.563, 24.900 31, 26 31 C 27.111 31, 28 30.333, 28 29.500 C 28 28.675, 28.730 28, 29.622 28 C 30.951 28, 31.020 27.729, 30 26.500 C 29.007 25.303, 29.007 24.697, 30 23.500 C 31.020 22.271, 30.951 22, 29.622 22 C 28.730 22, 28 21.325, 28 20.500 C 28 19.675, 27.137 19, 26.083 19 C 25.029 19, 23.940 18.438, 23.662 17.750 C 23.259 16.750, 23.142 16.750, 23.079 17.750" stroke="none" fill="#ffda88" fill-rule="evenodd"/><path d="M 11.211 4.013 C 9.402 5.116, 6.995 7.588, 5.863 9.508 C 4.731 11.427, 3.403 12.749, 2.914 12.447 C 2.424 12.144, 2.293 12.600, 2.623 13.461 C 2.954 14.321, 2.705 15.651, 2.070 16.416 C 1.335 17.301, 1.039 20.837, 1.254 26.153 L 1.593 34.500 1.796 25.691 C 2.079 13.450, 4 15.385, 4 27.911 C 4 36.428, 4.296 38.147, 6.270 41.102 C 9.676 46.200, 14.124 47.997, 23.349 47.998 C 35.249 48.001, 41.299 44.095, 42.692 35.510 C 43.005 33.579, 43.540 32, 43.881 32 C 44.221 32, 44.500 30.875, 44.500 29.500 C 44.500 28.125, 44.210 27, 43.856 27 C 43.502 27, 43.052 23.513, 42.856 19.250 C 42.253 6.125, 37.465 1.997, 22.849 2.004 C 16.257 2.007, 13.808 2.430, 11.211 4.013 M 18 4 C 18 4.550, 18.450 5, 19 5 C 19.550 5, 20 4.550, 20 4 C 20 3.450, 19.550 3, 19 3 C 18.450 3, 18 3.450, 18 4 M 10.627 6.205 C 6.251 9.466, 5 13.645, 5 25 C 5 36.756, 6.393 41.052, 11.144 43.941 C 12.939 45.033, 14.552 45.782, 14.728 45.605 C 14.905 45.429, 13.238 43.473, 11.025 41.260 L 7 37.235 7 25 L 7 12.765 11 8.765 C 13.200 6.565, 15 4.593, 15 4.382 C 15 3.498, 13.317 4.199, 10.627 6.205 M 19 13.059 C 19 14.191, 19.430 14.852, 19.956 14.527 C 20.482 14.202, 20.659 13.275, 20.349 12.468 C 19.556 10.401, 19 10.644, 19 13.059 M 26.648 12.474 C 26.340 13.278, 26.471 14.173, 26.939 14.462 C 27.407 14.752, 28.043 14.331, 28.352 13.526 C 28.660 12.722, 28.529 11.827, 28.061 11.538 C 27.593 11.248, 26.957 11.669, 26.648 12.474 M 21.757 15.228 C 21.532 15.904, 20.257 16.466, 18.924 16.478 C 17.236 16.493, 16.542 17.032, 16.639 18.250 C 16.715 19.212, 16.179 20, 15.448 20 C 13.436 20, 12.677 21.905, 14.036 23.544 C 14.981 24.682, 14.981 25.318, 14.036 26.456 C 12.677 28.095, 13.436 30, 15.448 30 C 16.179 30, 16.715 30.788, 16.639 31.750 C 16.544 32.944, 17.232 33.508, 18.803 33.526 C 20.069 33.541, 21.497 34.187, 21.976 34.962 C 22.724 36.172, 23.092 36.168, 24.577 34.936 C 25.529 34.146, 27.138 33.641, 28.154 33.813 C 29.426 34.028, 30 33.518, 30 32.170 C 30 31.094, 30.614 29.979, 31.364 29.691 C 33.207 28.983, 33.207 21.017, 31.364 20.309 C 30.614 20.021, 30 18.882, 30 17.776 C 30 16.272, 29.507 15.896, 28.037 16.280 C 26.957 16.563, 25.552 16.165, 24.914 15.397 C 23.484 13.673, 22.297 13.610, 21.757 15.228 M 12.188 17.063 C 12.428 17.784, 13.216 18.572, 13.938 18.813 C 14.688 19.063, 15.063 18.688, 14.813 17.938 C 14.572 17.216, 13.784 16.428, 13.063 16.188 C 12.313 15.938, 11.938 16.313, 12.188 17.063 M 33.020 17.476 C 32.231 18.426, 32.155 19, 32.819 19 C 34.027 19, 35.436 17.103, 34.743 16.409 C 34.491 16.158, 33.716 16.638, 33.020 17.476 M 9.800 25.200 C 10.733 26.133, 11.267 26.133, 12.200 25.200 C 13.133 24.267, 12.867 24, 11 24 C 9.133 24, 8.867 24.267, 9.800 25.200 M 34.500 25 C 34.160 25.550, 34.584 26, 35.441 26 C 36.298 26, 37 25.550, 37 25 C 37 24.450, 36.577 24, 36.059 24 C 35.541 24, 34.840 24.450, 34.500 25 M 12.459 32.067 C 11.383 33.808, 12.608 34.177, 13.980 32.524 C 14.769 31.574, 14.845 31, 14.181 31 C 13.597 31, 12.821 31.480, 12.459 32.067 M 32.188 32.063 C 32.428 32.784, 33.216 33.572, 33.938 33.813 C 34.688 34.063, 35.063 33.688, 34.813 32.938 C 34.572 32.216, 33.784 31.428, 33.063 31.188 C 32.313 30.938, 31.938 31.313, 32.188 32.063 M 18.583 35.866 C 18.152 36.563, 18.070 37.403, 18.400 37.733 C 19.295 38.628, 20.271 37.312, 19.787 35.862 C 19.449 34.846, 19.213 34.846, 18.583 35.866 M 26 36.382 C 26 37.207, 26.450 38.160, 27 38.500 C 27.550 38.840, 28 38.443, 28 37.618 C 28 36.793, 27.550 35.840, 27 35.500 C 26.450 35.160, 26 35.557, 26 36.382 M 6.500 45 C 7.495 46.100, 8.535 47, 8.810 47 C 9.085 47, 8.495 46.100, 7.500 45 C 6.505 43.900, 5.465 43, 5.190 43 C 4.915 43, 5.505 43.900, 6.500 45 M 18 46 C 18 46.550, 18.450 47, 19 47 C 19.550 47, 20 46.550, 20 46 C 20 45.450, 19.550 45, 19 45 C 18.450 45, 18 45.450, 18 46" stroke="none" fill="#a3d274" fill-rule="evenodd"/><path d="M 11.274 2.093 C 7.085 4.167, 2.477 9.931, 3.222 12.166 C 3.435 12.805, 4.580 11.683, 5.766 9.673 C 9.261 3.748, 13.136 2.008, 22.849 2.004 C 37.465 1.997, 42.253 6.125, 42.856 19.250 C 43.280 28.483, 45.010 29.705, 44.978 20.750 C 44.955 14.087, 42.737 7.791, 39.355 4.788 C 33.537 -0.377, 19.070 -1.766, 11.274 2.093 M 18 4 C 18 4.550, 18.450 5, 19 5 C 19.550 5, 20 4.550, 20 4 C 20 3.450, 19.550 3, 19 3 C 18.450 3, 18 3.450, 18 4 M 10.627 6.205 C 6.251 9.466, 5 13.645, 5 25 C 5 36.756, 6.393 41.052, 11.144 43.941 C 12.939 45.033, 14.552 45.782, 14.728 45.605 C 14.905 45.429, 13.238 43.473, 11.025 41.260 L 7 37.235 7 25 L 7 12.765 11 8.765 C 13.200 6.565, 15 4.593, 15 4.382 C 15 3.498, 13.317 4.199, 10.627 6.205 M 19 13.059 C 19 14.191, 19.430 14.852, 19.956 14.527 C 20.482 14.202, 20.659 13.275, 20.349 12.468 C 19.556 10.401, 19 10.644, 19 13.059 M 26.648 12.474 C 26.340 13.278, 26.471 14.173, 26.939 14.462 C 27.407 14.752, 28.043 14.331, 28.352 13.526 C 28.660 12.722, 28.529 11.827, 28.061 11.538 C 27.593 11.248, 26.957 11.669, 26.648 12.474 M 21.757 15.228 C 21.532 15.904, 20.257 16.466, 18.924 16.478 C 17.236 16.493, 16.542 17.032, 16.639 18.250 C 16.715 19.212, 16.179 20, 15.448 20 C 13.436 20, 12.677 21.905, 14.036 23.544 C 14.981 24.682, 14.981 25.318, 14.036 26.456 C 12.677 28.095, 13.436 30, 15.448 30 C 16.179 30, 16.715 30.788, 16.639 31.750 C 16.544 32.944, 17.232 33.508, 18.803 33.526 C 20.069 33.541, 21.497 34.187, 21.976 34.962 C 22.724 36.172, 23.092 36.168, 24.577 34.936 C 25.529 34.146, 27.138 33.641, 28.154 33.813 C 29.426 34.028, 30 33.518, 30 32.170 C 30 31.094, 30.614 29.979, 31.364 29.691 C 33.207 28.983, 33.207 21.017, 31.364 20.309 C 30.614 20.021, 30 18.882, 30 17.776 C 30 16.272, 29.507 15.896, 28.037 16.280 C 26.957 16.563, 25.552 16.165, 24.914 15.397 C 23.484 13.673, 22.297 13.610, 21.757 15.228 M 12.188 17.063 C 12.428 17.784, 13.216 18.572, 13.938 18.813 C 14.688 19.063, 15.063 18.688, 14.813 17.938 C 14.572 17.216, 13.784 16.428, 13.063 16.188 C 12.313 15.938, 11.938 16.313, 12.188 17.063 M 22.623 17.540 C 22.213 18.607, 21.346 18.927, 20.011 18.504 C 18.452 18.009, 18.150 18.226, 18.636 19.494 C 19.066 20.615, 18.592 21.294, 17.109 21.682 C 15.413 22.125, 15.200 22.536, 16.101 23.622 C 16.959 24.656, 16.959 25.344, 16.101 26.378 C 15.200 27.464, 15.413 27.875, 17.109 28.318 C 18.592 28.706, 19.066 29.385, 18.636 30.506 C 18.150 31.774, 18.452 31.991, 20.011 31.496 C 21.346 31.073, 22.213 31.393, 22.623 32.460 C 23.178 33.907, 23.354 33.899, 24.467 32.377 C 25.143 31.451, 26.215 31.015, 26.848 31.406 C 27.533 31.829, 28 31.473, 28 30.527 C 28 29.652, 29.012 28.529, 30.250 28.031 C 31.488 27.534, 31.938 27.098, 31.250 27.063 C 30.563 27.029, 30 26.100, 30 25 C 30 23.900, 30.563 22.971, 31.250 22.937 C 31.938 22.902, 31.488 22.466, 30.250 21.969 C 29.012 21.471, 28 20.348, 28 19.473 C 28 18.527, 27.533 18.171, 26.848 18.594 C 26.215 18.985, 25.143 18.549, 24.467 17.623 C 23.354 16.101, 23.178 16.093, 22.623 17.540 M 33.020 17.476 C 32.231 18.426, 32.155 19, 32.819 19 C 34.027 19, 35.436 17.103, 34.743 16.409 C 34.491 16.158, 33.716 16.638, 33.020 17.476 M 2 26.376 C 2 37.210, 2.851 40.182, 7.267 44.760 C 11.035 48.666, 15.299 49.994, 24 49.972 C 30.923 49.955, 37.157 47.795, 40.212 44.355 C 42.190 42.127, 45 35.775, 45 33.532 C 45 30.553, 43.254 32.049, 42.692 35.510 C 41.299 44.095, 35.249 48.001, 23.349 47.998 C 14.124 47.997, 9.676 46.200, 6.270 41.102 C 4.296 38.147, 4 36.428, 4 27.911 C 4 22.461, 3.557 17.844, 3 17.500 C 2.360 17.105, 2 20.301, 2 26.376 M 9.800 25.200 C 10.733 26.133, 11.267 26.133, 12.200 25.200 C 13.133 24.267, 12.867 24, 11 24 C 9.133 24, 8.867 24.267, 9.800 25.200 M 34.500 25 C 34.160 25.550, 34.584 26, 35.441 26 C 36.298 26, 37 25.550, 37 25 C 37 24.450, 36.577 24, 36.059 24 C 35.541 24, 34.840 24.450, 34.500 25 M 12.459 32.067 C 11.383 33.808, 12.608 34.177, 13.980 32.524 C 14.769 31.574, 14.845 31, 14.181 31 C 13.597 31, 12.821 31.480, 12.459 32.067 M 32.188 32.063 C 32.428 32.784, 33.216 33.572, 33.938 33.813 C 34.688 34.063, 35.063 33.688, 34.813 32.938 C 34.572 32.216, 33.784 31.428, 33.063 31.188 C 32.313 30.938, 31.938 31.313, 32.188 32.063 M 18.583 35.866 C 18.152 36.563, 18.070 37.403, 18.400 37.733 C 19.295 38.628, 20.271 37.312, 19.787 35.862 C 19.449 34.846, 19.213 34.846, 18.583 35.866 M 26 36.382 C 26 37.207, 26.450 38.160, 27 38.500 C 27.550 38.840, 28 38.443, 28 37.618 C 28 36.793, 27.550 35.840, 27 35.500 C 26.450 35.160, 26 35.557, 26 36.382 M 18 46 C 18 46.550, 18.450 47, 19 47 C 19.550 47, 20 46.550, 20 46 C 20 45.450, 19.550 45, 19 45 C 18.450 45, 18 45.450, 18 46" stroke="none" fill="#181b14" fill-rule="evenodd"/></svg>